<mxfile host="app.diagrams.net" modified="2022-07-26T10:01:19.389Z" agent="5.0 (Macintosh; Intel Mac OS X 10_15_7) AppleWebKit/605.1.15 (KHTML, like Gecko) Version/15.5 Safari/605.1.15" etag="NZ-hTs12xLBUK_b9eerB" version="20.1.3" type="github">
  <diagram id="Mv_iFAbrvYUVFCfJH98E" name="第 1 页">
    <mxGraphModel dx="1426" dy="825" grid="1" gridSize="10" guides="1" tooltips="1" connect="1" arrows="1" fold="1" page="1" pageScale="1" pageWidth="827" pageHeight="1169" math="0" shadow="0">
      <root>
        <mxCell id="0" />
        <mxCell id="1" parent="0" />
        <mxCell id="hxdUNT8O2eYTcMTj0ED9-1" value="" style="shape=ext;double=1;rounded=0;whiteSpace=wrap;html=1;labelBackgroundColor=#FFFFFF;fontFamily=Helvetica;fontSize=14;fontColor=#333333;fillColor=#f5f5f5;strokeColor=#666666;" vertex="1" parent="1">
          <mxGeometry x="70" y="100" width="690" height="630" as="geometry" />
        </mxCell>
        <mxCell id="hxdUNT8O2eYTcMTj0ED9-2" value="GC" style="text;strokeColor=none;fillColor=none;html=1;fontSize=24;fontStyle=1;verticalAlign=middle;align=center;labelBackgroundColor=#FFFFFF;fontFamily=Helvetica;fontColor=#000000;" vertex="1" parent="1">
          <mxGeometry x="50" y="110" width="100" height="40" as="geometry" />
        </mxCell>
        <mxCell id="hxdUNT8O2eYTcMTj0ED9-9" style="edgeStyle=orthogonalEdgeStyle;rounded=0;orthogonalLoop=1;jettySize=auto;html=1;exitX=0.5;exitY=1;exitDx=0;exitDy=0;entryX=0;entryY=0.5;entryDx=0;entryDy=0;fontFamily=Helvetica;fontSize=20;fontColor=#000000;" edge="1" parent="1" source="hxdUNT8O2eYTcMTj0ED9-3" target="hxdUNT8O2eYTcMTj0ED9-8">
          <mxGeometry relative="1" as="geometry" />
        </mxCell>
        <mxCell id="hxdUNT8O2eYTcMTj0ED9-3" value="&lt;font style=&quot;font-size: 20px;&quot;&gt;Peer&lt;/font&gt;" style="shape=ext;double=1;rounded=1;whiteSpace=wrap;html=1;labelBackgroundColor=#FFFFFF;fontFamily=Helvetica;fontSize=14;fontColor=#000000;" vertex="1" parent="1">
          <mxGeometry x="200" y="250" width="120" height="80" as="geometry" />
        </mxCell>
        <mxCell id="hxdUNT8O2eYTcMTj0ED9-11" style="edgeStyle=orthogonalEdgeStyle;rounded=0;orthogonalLoop=1;jettySize=auto;html=1;exitX=0.5;exitY=1;exitDx=0;exitDy=0;entryX=0.667;entryY=0;entryDx=0;entryDy=0;entryPerimeter=0;fontFamily=Helvetica;fontSize=14;fontColor=#000000;" edge="1" parent="1" source="hxdUNT8O2eYTcMTj0ED9-4" target="hxdUNT8O2eYTcMTj0ED9-8">
          <mxGeometry relative="1" as="geometry" />
        </mxCell>
        <mxCell id="hxdUNT8O2eYTcMTj0ED9-4" value="&lt;font style=&quot;font-size: 20px;&quot;&gt;task&lt;/font&gt;" style="shape=ext;double=1;rounded=1;whiteSpace=wrap;html=1;labelBackgroundColor=#FFFFFF;fontFamily=Helvetica;fontSize=14;fontColor=#000000;" vertex="1" parent="1">
          <mxGeometry x="370" y="250" width="120" height="80" as="geometry" />
        </mxCell>
        <mxCell id="hxdUNT8O2eYTcMTj0ED9-16" style="edgeStyle=orthogonalEdgeStyle;rounded=0;orthogonalLoop=1;jettySize=auto;html=1;exitX=0.75;exitY=1;exitDx=0;exitDy=0;entryX=1;entryY=0.5;entryDx=0;entryDy=0;fontFamily=Helvetica;fontSize=14;fontColor=#000000;" edge="1" parent="1" source="hxdUNT8O2eYTcMTj0ED9-5" target="hxdUNT8O2eYTcMTj0ED9-8">
          <mxGeometry relative="1" as="geometry" />
        </mxCell>
        <mxCell id="hxdUNT8O2eYTcMTj0ED9-5" value="&lt;font style=&quot;font-size: 20px;&quot;&gt;Host&lt;/font&gt;" style="shape=ext;double=1;rounded=1;whiteSpace=wrap;html=1;labelBackgroundColor=#FFFFFF;fontFamily=Helvetica;fontSize=14;fontColor=#000000;" vertex="1" parent="1">
          <mxGeometry x="530" y="250" width="120" height="80" as="geometry" />
        </mxCell>
        <mxCell id="hxdUNT8O2eYTcMTj0ED9-8" value="map.Delete" style="shape=ext;double=1;rounded=1;whiteSpace=wrap;html=1;labelBackgroundColor=#FFFFFF;fontFamily=Helvetica;fontSize=20;fontColor=#000000;" vertex="1" parent="1">
          <mxGeometry x="350" y="590" width="120" height="80" as="geometry" />
        </mxCell>
        <mxCell id="hxdUNT8O2eYTcMTj0ED9-10" value="&lt;div style=&quot;text-align: start;&quot; class=&quot;lake-content&quot;&gt;&lt;span class=&quot;ne-text&quot;&gt;&lt;font style=&quot;font-size: 14px;&quot;&gt;超时&amp;amp;&amp;amp;childrenCount==0会被回收，同时还会维护其父信息childrenCount--&lt;/font&gt;&lt;/span&gt;&lt;/div&gt;" style="text;html=1;strokeColor=none;fillColor=none;align=center;verticalAlign=middle;whiteSpace=wrap;rounded=0;labelBackgroundColor=#FFFFFF;fontFamily=Helvetica;fontSize=20;fontColor=#000000;" vertex="1" parent="1">
          <mxGeometry x="170" y="440" width="170" height="30" as="geometry" />
        </mxCell>
        <mxCell id="hxdUNT8O2eYTcMTj0ED9-14" value="&lt;div style=&quot;text-align: start;&quot; class=&quot;lake-content&quot;&gt;&lt;span class=&quot;ne-text&quot;&gt;超时&amp;amp;&amp;amp;peerCount==0同时状态不是运行中会被回收&lt;/span&gt;&lt;/div&gt;" style="text;html=1;strokeColor=none;fillColor=none;align=center;verticalAlign=middle;whiteSpace=wrap;rounded=0;labelBackgroundColor=#FFFFFF;fontFamily=Helvetica;fontSize=14;fontColor=#000000;" vertex="1" parent="1">
          <mxGeometry x="320" y="370" width="260" height="30" as="geometry" />
        </mxCell>
        <mxCell id="hxdUNT8O2eYTcMTj0ED9-17" value="&lt;div style=&quot;text-align: start;&quot; class=&quot;lake-content&quot;&gt;&lt;span class=&quot;ne-text&quot;&gt;超时&amp;amp;&amp;amp;该host的peercount==0 &amp;amp;&amp;amp;该host的uploadpeercount==0&amp;amp;&amp;amp;host!=cdn，则会被回收&lt;/span&gt;&lt;/div&gt;" style="text;html=1;strokeColor=none;fillColor=none;align=center;verticalAlign=middle;whiteSpace=wrap;rounded=0;labelBackgroundColor=#FFFFFF;fontFamily=Helvetica;fontSize=14;fontColor=#000000;" vertex="1" parent="1">
          <mxGeometry x="460" y="460" width="290" height="30" as="geometry" />
        </mxCell>
      </root>
    </mxGraphModel>
  </diagram>
</mxfile>
